<svg width="31" height="31" viewBox="0 0 31 31" fill="none" xmlns="http://www.w3.org/2000/svg">
<path d="M20.8162 28.9114H4.11739C2.91009 28.9114 1.79177 28.3523 1.06739 27.3738C0.33031 26.3825 0.114279 25.137 0.48282 23.9552L5.83302 6.76075C6.31594 5.1595 7.79012 4.06659 9.46762 4.06659H25.0989C26.6366 4.06659 28.0218 4.9817 28.6064 6.40503C28.9241 7.14212 28.9876 7.98089 28.797 8.80693L24.5143 26.0012C24.1076 27.7168 22.5826 28.9114 20.8162 28.9114ZM9.4803 5.98556C8.65426 5.98556 7.90448 6.53209 7.66302 7.33272L2.31282 24.5271C2.13491 25.1244 2.23656 25.7471 2.61781 26.2554C2.97364 26.7384 3.53281 27.0179 4.13011 27.0179H20.8289C21.7057 27.0179 22.4682 26.4206 22.6716 25.5691L26.9543 8.36201C27.0559 7.94264 27.0305 7.52332 26.8653 7.15478C26.5603 6.43041 25.8868 5.97284 25.1116 5.97284H9.4803V5.98556Z" fill="black"/>
<path d="M26.4079 28.9114H20.3333C19.8123 28.9114 19.3802 28.4793 19.3802 27.9583C19.3802 27.4372 19.8123 27.0052 20.3333 27.0052H26.4079C26.9289 27.0052 27.4119 26.7892 27.7677 26.4079C28.1235 26.0267 28.3014 25.5183 28.2633 24.9973L27.0052 7.68855C26.9671 7.16751 27.361 6.70995 27.8821 6.67182C28.4031 6.64641 28.8606 7.02758 28.8987 7.54862L30.1569 24.8575C30.2331 25.8996 29.8646 26.9417 29.1529 27.7042C28.4539 28.4794 27.45 28.9114 26.4079 28.9114Z" fill="black"/>
<path d="M12.3013 9.06099C12.2251 9.06099 12.1489 9.04826 12.0726 9.03555C11.5643 8.90847 11.2466 8.40009 11.3737 7.87905L12.6953 2.38912C12.8224 1.88078 13.3307 1.56301 13.8518 1.6901C14.3601 1.81718 14.6778 2.32556 14.5507 2.8466L13.2291 8.33669C13.1274 8.76877 12.7334 9.06099 12.3013 9.06099Z" fill="black"/>
<path d="M20.8162 9.07373C20.7527 9.07373 20.6764 9.0737 20.6129 9.04829C20.1045 8.93391 19.7741 8.42556 19.8758 7.91723L21.0703 2.40185C21.1847 1.88081 21.6931 1.56316 22.2014 1.66483C22.7097 1.76649 23.0401 2.2874 22.9385 2.79573L21.7439 8.31126C21.6549 8.76876 21.261 9.07373 20.8162 9.07373Z" fill="black"/>
<path d="M19.9523 16.2031H9.78564C9.2646 16.2031 8.83252 15.771 8.83252 15.25C8.83252 14.729 9.2646 14.2969 9.78564 14.2969H19.9523C20.4734 14.2969 20.9054 14.729 20.9054 15.25C20.9054 15.771 20.4734 16.2031 19.9523 16.2031Z" fill="black"/>
<path d="M18.6815 21.2865H8.51483C7.99379 21.2865 7.56171 20.8544 7.56171 20.3333C7.56171 19.8123 7.99379 19.3802 8.51483 19.3802H18.6815C19.2025 19.3802 19.6346 19.8123 19.6346 20.3333C19.6346 20.8544 19.2025 21.2865 18.6815 21.2865Z" fill="black"/>
</svg>
